<?xml version="1.0" standalone="no"?><!DOCTYPE svg PUBLIC "-//W3C//DTD SVG 1.1//EN" "http://www.w3.org/Graphics/SVG/1.1/DTD/svg11.dtd"><svg t="1709477000877" class="icon" viewBox="0 0 1024 1024" version="1.1" xmlns="http://www.w3.org/2000/svg" p-id="12549" xmlns:xlink="http://www.w3.org/1999/xlink" width="200" height="200"><path d="M74.148 902.951h875.704v39.805H74.148V902.95zM233.367 743.89h557.266v39.805H233.367V743.89zM746.42 256.785c-74.149 21.926-152.855 33.74-234.416 33.74-85.568 0-167.997-12.996-245.315-37.039 10.775 3.465 28.643 9.084 30.33 8.795a1189.569 1189.569 0 0 1-7.57 41.472c70.908 18.702 145.526 28.694 222.554 28.694 77.026 0 151.64-9.99 222.546-28.692a1190.447 1190.447 0 0 1-7.57-41.472c1.055 0.048 10.288-2.69 19.441-5.498z" fill="" p-id="12550"></path><path d="M870.242 47.307H153.757c-43.968 0-79.61 35.642-79.61 79.61v656.98c104.832-139.493 179.7-302.712 215.303-480.143a1190.447 1190.447 0 0 0 7.57-41.472c-1.687 0.288-19.556-5.33-30.33-8.795a1441.15 1441.15 0 0 1-8.123-2.637l-0.01 0.064-0.001 0.004c-23.115 144.551-73.052 280.128-144.604 401.496V146.819c0-32.975 26.732-59.707 59.707-59.707h99.275v0.008h39.775v-0.008h398.582v0.008h39.775v-0.008h99.275c32.975 0 59.707 26.732 59.707 59.707v505.594C838.505 531.06 788.57 395.502 765.454 250.97l-0.01-0.054-0.011-0.067s-9.463 3.007-19.014 5.936c-9.153 2.808-18.386 5.546-19.439 5.498a1189.569 1189.569 0 0 0 7.57 41.472c35.605 177.431 110.47 340.649 215.301 480.14V126.918c0.001-43.968-35.64-79.61-79.609-79.61z" fill="" p-id="12551"></path></svg>