<?xml version="1.0" standalone="no"?><!DOCTYPE svg PUBLIC "-//W3C//DTD SVG 1.1//EN" "http://www.w3.org/Graphics/SVG/1.1/DTD/svg11.dtd"><svg t="1699284608107" class="icon" viewBox="0 0 1024 1024" version="1.1" xmlns="http://www.w3.org/2000/svg" p-id="13055" xmlns:xlink="http://www.w3.org/1999/xlink" width="200" height="200"><path d="M736 0h-512C171.072 0 128 43.072 128 96v832c0 52.928 43.072 96 96 96h512c88.256 0 160-71.744 160-160v-704C896 71.808 824.256 0 736 0zM832 864c0 52.928-43.072 96-96 96h-512a32 32 0 0 1-32-32v-832a32 32 0 0 1 32-32h512c52.928 0 96 43.072 96 96v704z" fill="#231815" p-id="13056"></path><path d="M352 192a32 32 0 0 0-32 32v576a32 32 0 0 0 64 0v-576a32 32 0 0 0-32-32z" fill="#231815" p-id="13057"></path></svg>