<?xml version="1.0" standalone="no"?><!DOCTYPE svg PUBLIC "-//W3C//DTD SVG 1.1//EN" "http://www.w3.org/Graphics/SVG/1.1/DTD/svg11.dtd"><svg t="1709476884748" class="icon" viewBox="0 0 1024 1024" version="1.1" xmlns="http://www.w3.org/2000/svg" p-id="8445" xmlns:xlink="http://www.w3.org/1999/xlink" width="200" height="200"><path d="M869.38662 806.387797l-116.482945 11.203156c-11.07115 1.065262-13.691837 8.367575-5.824659 16.229636l34.896788 34.867112c-77.298504 58.477856-171.627892 89.942475-268.610714 89.940428-9.0624 0-18.156522-0.275269-27.253714-0.828878-108.695584-6.606465-211.011878-52.700269-288.09958-129.787972-60.075237-60.075237-101.540627-135.439692-119.913067-217.947847C60.205197 529.705244 64.763003 446.12671 91.279936 368.364649c5.472642-16.047488-3.100618-33.491789-19.148106-38.96443-16.049534-5.470595-33.491789 3.101641-38.96443 19.148106C3.007497 436.990632-2.178619 532.036335 18.167778 623.408369c20.913309 93.915973 68.088748 179.679265 136.428206 248.0177 87.701434 87.701434 204.112748 140.140761 327.789535 147.658991 10.347672 0.629333 20.672832 0.941442 30.982642 0.941442 111.825878-0.002047 220.614583-36.778648 309.259506-105.099686 1.068332-0.822738 2.058892-1.707898 2.987031-2.63706l34.645055 34.616402c7.868201 7.862062 15.169491 5.235235 16.225543-5.837962l11.111059-116.484991C888.652406 813.511032 880.45777 805.322535 869.38662 806.387797z" p-id="8446"></path><path d="M1012.674047 422.48936c-18.35095-102.097306-66.956971-194.97053-140.563386-268.577968C779.60992 61.410652 656.672984 8.691963 525.94664 5.466502c-130.23618-3.208065-255.17675 42.906206-351.764576 129.863696-0.303922 0.273223-0.594541 0.555655-0.884137 0.838088l-34.026978-33.998325c-7.868201-7.862062-15.169491-5.235235-16.225543 5.837962L111.933325 224.492914c-1.056052 11.072173 7.138584 19.260669 18.209734 18.195408l116.482945-11.203156c11.07115-1.065262 13.691837-8.368598 5.824659-16.229636l-35.672454-35.642778c84.665285-75.538417 193.820334-115.575272 307.654962-112.766296 114.89989 2.835581 222.955908 49.173956 304.262702 130.48075 64.702628 64.702628 107.425661 146.31846 123.547851 236.023528 15.763009 87.707574 5.2864 177.034019-30.299073 258.32137-6.798846 15.532765 0.279363 33.635051 15.811104 40.434921 4.007267 1.753947 8.184403 2.583848 12.296047 2.583848 11.824303 0 23.092951-6.871501 28.138874-18.395976C1018.673691 623.816668 1030.598278 522.219759 1012.674047 422.48936z" p-id="8447"></path><path d="M375.031489 377.209084c3.529383-13.511735 6.1777-27.214828 7.939833-41.120536 2.936889-26.627451-0.151449-44.058448-9.266038-52.281737-9.114588-8.224312-21.221324-12.335956-36.31509-12.335956l-35.585473 0c-15.883759 0-27.940352 3.965312-36.173874 11.895935-8.233522 7.930623-13.873985 15.617699-16.912182 23.057135-3.038196 7.443529-4.556783 15.566534-4.556783 24.378224l0 442.3415c0 5.677303 1.913583 10.573823 5.750981 14.686491 3.832282 4.112668 8.572236 6.067182 14.227026 5.874801 5.653767-0.197498 10.490935-2.400676 14.516622-6.609535 4.024663-4.211928 6.039553-8.861832 6.039553-13.951757L284.696064 640.380926l14.479783 7.049556c9.05933 5.095042 21.661346 5.874801 37.816281 2.350534 24.819269-5.287423 40.872896-25.159006 48.164976-59.626006 2.556219-13.115716 3.588735-24.965601 3.097548-35.539424-0.491187-10.573823-3.102664-25.64917-7.829316-45.233204l32.502251 0c7.682983 0 13.002129 1.716084 15.957437 5.140067 2.955308 3.429099 4.530177 9.546424 4.726651 18.35709l0 111.61303c0 15.668865-2.009773 27.41642-6.021134 35.245735-4.015454 7.834432-11.262508 16.692171-21.735024 26.582425-10.477632 9.885138-18.605753 18.210757-24.379247 24.965601-5.777587 6.755868-9.353019 12.873192-10.721179 18.35709-2.157129 7.829316-1.174756 14.245446 2.937912 19.238157 4.112668 4.993734 9.692756 6.705726 16.741289 5.140067 7.049556-1.569752 12.285814-4.112668 15.71389-7.636934 3.423983-3.524267 18.986423-20.757766 46.687322-51.694359 18.11866 18.990516 33.497928 32.308847 46.127574 39.944757 12.629645 7.636934 29.371958 12.383028 50.225915 14.245446 20.853957 1.858324 47.289026 2.983961 79.304184 3.378957 32.015158 0.38988 51.937906 0.48607 59.771315 0.292666 16.251126-0.196475 33.677007-0.931209 52.28276-2.202155 18.600637-1.276063 30.445406-4.750187 35.539424-10.426467 3.524267-3.722788 5.236258-9.499351 5.140067-17.32969-0.101307-7.834432-7.981788-12.827143-23.644513-14.980179-7.246031-0.784876-19.825534-0.688685-37.742603 0.293689-17.917068 0.977257-37.743626 1.270946-59.478649 0.881067-53.851489-0.587378-87.087451-0.932232-99.717096-1.028423-12.630668-0.101307-24.819269-2.157129-36.567847-6.167466-11.748578-4.016477-22.61609-11.703553-32.602535-23.057135-9.986445-11.354606-14.979156-28.389584-14.979156-51.106981L476.494345 522.305717c0-19.385513-4.511757-32.993438-13.530155-40.826847-9.017374-7.829316-21.271466-11.748578-36.760229-11.748578L369.148501 469.730291c-5.686513-14.291494-8.724709-24.571628-9.114588-30.840402-0.587378-6.264681 0.784876-14.878872 4.116761-25.846668L375.031489 377.209084zM342.410534 582.811766c-1.276063 13.510712-8.958022 20.367887-23.057135 20.560268-8.618285 0.197498-20.170388-3.816932-34.659381-12.042267L284.694017 335.794859c0-5.287423 1.27197-10.280134 3.817955-14.980179 2.542916-4.699022 9.105379-7.049556 19.679202-7.049556l23.203468 0.293689c7.049556 0.197498 10.670014 5.287423 10.867512 15.272845 0 8.224312-2.495844 21.88238-7.489578 40.974203-4.992711 19.091824-8.765641 32.455179-11.307533 40.092114-5.483898 16.255219-8.178263 27.41642-8.077979 33.484625 0.096191 6.071276 4.01136 19.045775 11.748578 38.917358 7.733125 19.8767 12.969383 41.759079 15.71389 65.646116C343.828836 557.846164 343.68148 569.301054 342.410534 582.811766z" p-id="8448"></path><path d="M470.619544 365.019461c-4.700045-7.343245-11.799744-17.573237-21.295002-30.694069-9.500375-13.116739-16.35141-21.537526-20.560268-25.260314-4.212952-3.717671-8.178263-6.16849-11.895935-7.343245-7.834432-1.955538-13.561877-1.028423-17.183358 2.790556-3.625574 3.817955-5.581112 8.03193-5.873778 12.629645-0.293689 4.603855 0.927115 9.155521 3.671623 13.658068 2.739391 4.50664 8.026814 12.239765 15.861246 23.204491 7.829316 10.968819 13.900591 19.97289 18.210757 27.022447 5.873778 10.183943 10.619872 17.32969 14.245446 21.441335 3.621481 4.111644 8.076956 6.461155 13.364379 7.049556 5.479805 0.784876 10.178827-0.683569 14.098089-4.406356 3.91517-3.717671 5.627161-9.495258 5.140067-17.32969C477.911624 379.952568 475.318566 372.361683 470.619544 365.019461z" p-id="8449"></path><path d="M532.300348 383.082862c-7.247054 11.556197-13.905708 21.248953-19.97289 29.078269l-25.847691 31.42778c-9.794064 12.730952-12.189623 22.277376-7.195889 28.637224 4.992711 6.364965 10.132778 9.399067 15.420201 9.105379 5.287423-0.293689 10.867512-3.230578 16.742313-8.81169s13.116739-14.144138 21.736047-25.700335l0 236.444107c0 7.049556 1.77032 12.529361 5.318122 16.448624 3.543709 3.914146 8.384971 5.677303 14.516622 5.2864 6.131651-0.394996 11.111059-2.6432 14.947434-6.755868 3.832282-4.112668 5.749958-9.104355 5.749958-14.980179l0-87.821161 121.599476 0 0 43.764759c0 8.810666-1.716084 15.272845-5.139044 19.384489-3.429099 4.112668-8.959046 6.365988-16.594957 6.755868l-27.904537-2.349511c-8.618285 0.394996-14.882965 2.840698-18.797112 7.343245-3.332908 3.721765-4.846378 8.371668-4.552689 13.951757s3.326768 10.67513 9.104355 15.273868c5.774517 4.597715 19.335371 7.29208 40.680515 8.076956 27.453259 1.36816 44.943608-4.161786 52.461839-16.594957 7.517207-12.432147 11.275811-24.819269 11.275811-37.156248L735.848231 438.403818c0-10.050913-1.219781-18.825764-3.65218-26.320459-2.432399-7.489578-5.452175-13.207813-9.051143-17.150612-3.603061-3.942799-9.150404-7.343245-16.646122-10.202363-7.498788-2.859118-15.525602-4.290723-24.089651-4.290723l-101.043301 0c8.178263-13.047154 16.062837-26.852578 23.653723-41.414225l136.409786 0c4.891404 0 9.399067-1.821485 13.510712-5.465478s6.360871-8.444323 6.755868-14.391778c0.38988-6.52153-1.614777-11.987009-6.021134-16.402575s-9.155521-6.622838-14.245446-6.622838l-118.887714 0 6.718005-19.091824c2.331092-6.461155 3.060709-12.335956 2.189875-17.623379-0.876973-5.287423-3.116991-9.692756-6.719028-13.217023s-8.274454-5.236258-14.015202-5.140067c-5.745864 0.101307-10.564613 2.349511-14.456247 6.755868-3.892657 4.405333-7.058766 11.115152-9.491165 20.120246-2.432399 9.009188-5.305843 18.407232-8.614192 28.197202l-78.45484 0c-5.287423 0-10.037611 2.065032-14.245446 6.191003-4.212952 4.125971-6.268774 9.353019-6.16849 15.686261 0.096191 6.333242 2.203178 11.413957 6.314823 15.250332 4.111644 3.837398 8.81169 5.755074 14.098089 5.755074l59.183937 0-13.143345 21.735024L532.300348 383.082862zM573.714574 445.63143c0-6.319939 1.37737-11.615549 4.140297-15.892969 2.761903-4.27742 9.271154-6.41613 19.527752-6.41613l74.264401 0c11.831466 0 18.73469 2.28095 20.706601 6.833639 1.973958 4.552689 2.960425 9.711176 2.960425 15.47546l0 21.74935-121.599476 0L573.714574 445.63143zM573.714574 510.263449l121.599476 0 0 42.296315-121.599476 0L573.714574 510.263449z" p-id="8450"></path></svg>